<svg width="131" height="130" viewBox="0 0 131 130" fill="none" xmlns="http://www.w3.org/2000/svg">
<g filter="url(#filter0_d_1453_20914)">
<rect x="10" y="5" width="111" height="110" fill="#DAEEFA"/>
</g>
<path d="M63.6318 40.1172C60.8115 40.5547 58.6475 42.0156 57.6006 44.1797C57.1787 45.0625 56.96 45.9062 56.8975 46.9219C56.835 47.9922 57.0225 49.4062 57.3896 50.5625C57.4209 50.6797 57.3818 50.7031 57.1318 50.7031C56.71 50.7109 56.2256 50.9531 55.9678 51.2969C55.749 51.5781 55.7412 51.6172 55.7178 52.6641C55.6943 53.625 55.71 53.7656 55.8506 54.0547C56.0928 54.5234 56.5146 54.7734 57.1865 54.8281L57.7412 54.8828L57.9209 55.3906C58.3506 56.6328 59.124 57.7656 60.1631 58.6562C60.9521 59.3359 61.0459 59.5469 60.9912 60.5469C60.9443 61.2734 60.7646 61.8906 60.3896 62.5312L60.1553 62.9453L59.085 63C52.4365 63.3438 49.3193 65.8438 48.2881 71.6719C47.9053 73.8359 47.6709 77.9766 47.8975 78.7734C47.999 79.1562 48.4678 79.6719 48.8662 79.8516C49.1631 79.9922 49.8584 80 64.999 80C80.1396 80 80.835 79.9922 81.1318 79.8516C81.5303 79.6719 81.999 79.1562 82.1006 78.7734C82.2646 78.1875 82.1475 74.1406 81.9053 72.2656C81.1006 65.8906 78.1006 63.3516 70.9521 63L69.835 62.9453L69.6006 62.5469C69.0459 61.5781 68.8428 60.3438 69.1084 59.4609C69.2021 59.125 69.3271 58.9609 69.8193 58.4922C70.749 57.6094 71.4053 56.5781 71.7959 55.375L71.9678 54.8672L72.46 54.8203C73.0693 54.7734 73.4443 54.5625 73.71 54.1094C73.8896 53.7969 73.9053 53.7031 73.9053 52.7812C73.9053 51.6562 73.7959 51.3047 73.335 51L73.0771 50.8359L73.2646 50.0469C73.4365 49.3594 73.46 49.0703 73.46 47.7734C73.4678 46.4766 73.4443 46.2109 73.2959 45.6641C72.4678 42.6562 70.0225 40.625 66.624 40.125C65.6553 39.9766 64.5068 39.9766 63.6318 40.1172ZM67.3662 41.3516C69.8428 42 71.6475 43.6875 72.2334 45.8984C72.4678 46.7578 72.4443 48.8359 72.1943 49.8984C72.0928 50.3438 71.9834 50.7031 71.9521 50.7031C71.9209 50.7031 71.835 50.3047 71.7568 49.8203C71.6006 48.7656 71.4521 48.4141 71.0303 48.0312C70.5146 47.5625 70.335 47.5391 68.2021 47.6562C65.3975 47.8047 64.1006 47.6797 62.374 47.0938C61.585 46.8281 61.3818 46.7812 61.0771 46.8281C60.5693 46.9062 60.1709 47.2031 59.6006 47.9297C59.3271 48.2734 58.9131 48.7969 58.6787 49.1016L58.2412 49.6484L58.1396 49.2188C57.96 48.4609 57.9287 46.8438 58.0771 46.0938C58.4443 44.2812 59.5303 42.8828 61.2334 42.0078C62.6396 41.2891 63.5928 41.0859 65.3506 41.125C66.3818 41.1484 66.7334 41.1875 67.3662 41.3516ZM62.1475 48.1562C63.8506 48.7422 65.2256 48.8828 67.9756 48.7422C69.0381 48.6953 69.999 48.6719 70.1084 48.7031C70.2178 48.7266 70.3662 48.8359 70.4365 48.9375C70.5928 49.1797 71.0928 52.4062 71.0928 53.1797C71.0928 55.2188 69.8584 57.4219 68.1084 58.4844C67.0146 59.1484 65.5537 59.4688 64.3193 59.3125C62.749 59.1172 61.5537 58.5312 60.4287 57.3906C59.874 56.8359 59.6475 56.5312 59.3584 55.9766C58.7256 54.7422 58.6475 54.4141 58.6084 52.5781L58.5771 50.9766L59.6475 49.6094C60.7881 48.1484 61.0303 47.8906 61.2334 47.8906C61.3037 47.8906 61.71 48.0078 62.1475 48.1562ZM57.499 52.7734V53.75H57.2334C56.8271 53.75 56.7178 53.5391 56.7178 52.7734C56.7178 52.0078 56.8271 51.7969 57.2334 51.7969H57.499V52.7734ZM72.7178 51.8906C72.7803 51.9531 72.8115 52.2656 72.8115 52.7734C72.8115 53.6328 72.7646 53.75 72.4053 53.75H72.1865L72.1787 53.1406C72.1787 52.8125 72.1475 52.375 72.1162 52.1641L72.0537 51.7969H72.3428C72.499 51.7969 72.6631 51.8359 72.7178 51.8906ZM62.9756 60.1562C64.5537 60.5938 66.2959 60.4922 67.7568 59.8828C67.874 59.8359 67.8896 59.8828 67.8896 60.3672C67.8896 61.2734 68.2412 62.375 68.8662 63.4375L69.0771 63.7891L67.0615 68.8438C65.96 71.6328 65.0303 73.9062 64.999 73.9062C64.9678 73.9062 64.0381 71.6328 62.9365 68.8438L60.9209 63.7891L61.1318 63.4375C61.7568 62.375 62.1084 61.2734 62.1084 60.375C62.1084 59.875 62.1162 59.8438 62.2568 59.9141C62.335 59.9609 62.6553 60.0625 62.9756 60.1562ZM62.1475 69.7812C63.3975 72.8984 64.4834 75.5312 64.5615 75.6172C64.7646 75.8359 65.2334 75.8359 65.4365 75.6172C65.5146 75.5312 66.6084 72.8984 67.8584 69.7812L70.124 64.1016L71.1396 64.1172C73.3975 64.1641 75.6162 64.6562 77.0068 65.4375C78.7803 66.4297 79.8818 68.0078 80.4678 70.3906C80.8584 72.0156 81.0928 74.5078 81.0928 77.2109C81.0928 78.5 81.0928 78.5234 80.8975 78.7109L80.71 78.9062H64.999H49.2881L49.1006 78.7109C48.9131 78.5312 48.9053 78.4922 48.9053 77.3672C48.9053 74.9688 49.1631 72.3906 49.5693 70.7266C50.5693 66.6094 53.1084 64.625 58.0068 64.1484C58.3975 64.1094 58.9756 64.0859 59.2959 64.0938L59.874 64.1016L62.1475 69.7812Z" fill="#065393"/>
<path d="M55.5075 66.5554C53.9528 67.0944 52.8434 67.9616 52.1013 69.2272C51.7341 69.8679 51.7184 70.1726 52.0466 70.4147C52.3591 70.6491 52.6325 70.5007 52.945 69.9382C53.6013 68.7429 54.6325 67.9382 56.07 67.5007C56.3825 67.4069 56.6716 67.2819 56.7184 67.2272C56.8747 67.0397 56.8356 66.6257 56.6403 66.4694C56.4138 66.2819 56.2497 66.2976 55.5075 66.5554Z" fill="#065393"/>
<path d="M72.3049 67.6951C72.1174 67.8748 72.1096 67.9295 72.1096 68.8279V69.7654H71.1721C70.2736 69.7654 70.219 69.7732 70.0393 69.9607C69.844 70.1482 69.844 70.1717 69.844 71.4685C69.844 73.2264 69.7971 73.156 71.1174 73.1873L72.094 73.2185L72.1252 74.1951C72.1565 75.5154 72.0861 75.4685 73.844 75.4685C75.1408 75.4685 75.1643 75.4685 75.3518 75.2732C75.5393 75.0935 75.5471 75.0389 75.5471 74.1482V73.2185L76.5315 73.1873C77.8674 73.156 77.8127 73.2264 77.8127 71.4451V70.0857L77.6096 69.9295C77.4221 69.781 77.2971 69.7654 76.4768 69.7654H75.5471V68.8357C75.5471 68.0154 75.5315 67.8904 75.383 67.7029L75.2268 67.4998H73.8596C72.5158 67.4998 72.4924 67.4998 72.3049 67.6951ZM74.4533 69.4607C74.4533 70.3982 74.4533 70.406 74.6799 70.6326C74.9065 70.8592 74.9143 70.8592 75.8518 70.8592H76.7971V71.4842V72.1092H75.8674C75.3518 72.1092 74.8752 72.1326 74.8049 72.156C74.5471 72.2576 74.4533 72.617 74.4533 73.5154V74.3748H73.8283H73.2033V73.4373C73.2033 72.5389 73.1955 72.4842 73.008 72.3045C72.8283 72.117 72.7736 72.1092 71.8752 72.1092H70.9377V71.4842V70.8592H71.7971C72.6955 70.8592 73.0549 70.7654 73.1565 70.5076C73.1799 70.4373 73.2033 69.9607 73.2033 69.4451V68.5154H73.8283H74.4533V69.4607Z" fill="#065393"/>
<path d="M51.3751 71.4297C51.1954 71.6094 51.0704 72.1016 50.9688 73.0157C50.9219 73.4375 50.9376 73.5157 51.086 73.6641C51.3907 73.9688 51.9063 73.8282 51.9844 73.4141C52.3047 71.8594 52.2969 71.5157 51.9532 71.3282C51.7266 71.211 51.5704 71.2344 51.3751 71.4297Z" fill="#065393"/>
<defs>
<filter id="filter0_d_1453_20914" x="0" y="0" width="131" height="130" filterUnits="userSpaceOnUse" color-interpolation-filters="sRGB">
<feFlood flood-opacity="0" result="BackgroundImageFix"/>
<feColorMatrix in="SourceAlpha" type="matrix" values="0 0 0 0 0 0 0 0 0 0 0 0 0 0 0 0 0 0 127 0" result="hardAlpha"/>
<feOffset dy="5"/>
<feGaussianBlur stdDeviation="5"/>
<feComposite in2="hardAlpha" operator="out"/>
<feColorMatrix type="matrix" values="0 0 0 0 0 0 0 0 0 0 0 0 0 0 0 0 0 0 0.04 0"/>
<feBlend mode="normal" in2="BackgroundImageFix" result="effect1_dropShadow_1453_20914"/>
<feBlend mode="normal" in="SourceGraphic" in2="effect1_dropShadow_1453_20914" result="shape"/>
</filter>
</defs>
</svg>
