<svg width="131" height="130" viewBox="0 0 131 130" fill="none" xmlns="http://www.w3.org/2000/svg">
<g filter="url(#filter0_d_1426_20720)">
<rect x="10" y="5" width="111" height="110" fill="white"/>
</g>
<g clip-path="url(#clip0_1426_20720)">
<path d="M61.4464 41.4062C58.8526 41.4375 58.5245 41.4609 58.337 41.5859C58.0089 41.7969 57.8995 42.0234 57.7745 42.7734C57.5557 44.0312 57.0792 44.9453 56.212 45.7656C55.9073 46.0547 55.4386 46.4062 55.1573 46.5547C53.8448 47.2344 53.712 47.5703 54.0245 49.375C55.0401 55.2656 58.0089 60.0391 62.4229 62.9141C63.5479 63.6406 64.7432 64.2422 65.0792 64.2422C65.5479 64.2422 67.4229 63.1875 68.712 62.1953C71.8448 59.7969 74.2042 56.1797 75.3839 51.9922C75.8604 50.2656 76.2042 48.0859 76.0636 47.5547C75.9854 47.2188 75.6339 46.8828 75.087 46.6094C73.4151 45.7656 72.4854 44.5 72.1495 42.6328C72.0245 41.9453 71.8448 41.6406 71.4542 41.4531C71.2198 41.3438 70.7823 41.3281 67.7589 41.3438C65.8761 41.3516 63.0323 41.3828 61.4464 41.4062ZM70.9776 42.7891C71.337 44.9062 72.5089 46.5625 74.3214 47.5078C74.9073 47.8125 74.9229 47.8281 74.9229 48.1094C74.9229 48.5703 74.6339 50.1953 74.3839 51.1719C73.1729 55.8438 70.6886 59.5 67.087 61.9062C66.6807 62.1719 66.0714 62.5391 65.7198 62.7188L65.087 63.0547L64.5948 62.8047C59.5792 60.2969 56.0557 55.0938 55.1339 48.8281C55.0714 48.4219 55.0323 48.0469 55.0557 48C55.0714 47.9531 55.2511 47.8359 55.4542 47.7422C57.3292 46.8281 58.6026 45.0547 58.9464 42.875L58.9932 42.5781L61.6651 42.5547C63.1339 42.5469 65.8214 42.5312 67.6339 42.5156L70.9307 42.5L70.9776 42.7891Z" fill="#065393"/>
<path d="M63.4543 43.5936L60.1418 43.6327L59.9231 43.8749C59.8059 44.0155 59.6418 44.3124 59.5715 44.5389C59.1184 45.9139 58.0715 47.2811 56.8137 48.1249C56.5871 48.2811 56.3528 48.5155 56.2825 48.6639C56.1575 48.9217 56.1653 48.9764 56.3606 49.953C56.6028 51.1249 56.6809 51.3202 56.9621 51.4764C57.134 51.5702 57.2121 51.5702 57.3996 51.4921C57.8059 51.328 57.8371 51.1249 57.6184 50.2108C57.509 49.7733 57.4231 49.3592 57.4231 49.2889C57.4231 49.2186 57.6106 49.0155 57.845 48.8358C58.9856 47.953 60.0559 46.5624 60.5168 45.3514L60.7434 44.7655H63.095C64.384 44.7655 66.2903 44.7421 67.3137 44.7108L69.1887 44.6639L69.3371 45.0467C69.9387 46.6561 70.9465 47.8983 72.5793 49.0467C72.595 49.0546 72.5325 49.4686 72.4309 49.9452C72.22 50.9764 72.2356 51.1405 72.5168 51.3514C72.6887 51.4842 72.7746 51.4999 72.9387 51.4374C73.2903 51.3202 73.4231 51.0311 73.6418 49.9139C73.8371 48.8983 73.845 48.8436 73.72 48.578C73.634 48.3983 73.3996 48.1796 73.0637 47.9452C72.4621 47.5389 71.595 46.6874 71.2434 46.1639C70.9387 45.7186 70.4387 44.7342 70.3137 44.3358C70.0793 43.6014 69.8371 43.5077 68.1106 43.5311C67.3684 43.5389 65.2746 43.5702 63.4543 43.5936Z" fill="#065393"/>
<path d="M68.3359 48.4453C68.2578 48.4922 67.3906 49.7422 66.4062 51.2266L64.625 53.9297L63.625 52.9688C63.0703 52.4453 62.5391 51.9844 62.4453 51.9453C62.0938 51.8125 61.7188 52.0859 61.7188 52.4766C61.7188 52.7813 61.7734 52.8438 63.3516 54.3281C64.3125 55.2344 64.5156 55.3906 64.7266 55.3906C64.8828 55.3906 65.0312 55.3281 65.1328 55.2109C65.5078 54.8125 69.2188 49.0938 69.2188 48.9219C69.2188 48.8281 69.1328 48.6563 69.0234 48.5547C68.8203 48.3516 68.5703 48.3125 68.3359 48.4453Z" fill="#065393"/>
<path d="M71.6953 52.8984C71.6172 52.9452 71.3672 53.3749 71.1406 53.8515C69.875 56.5468 68.1016 58.6327 65.8047 60.1327C65.4609 60.3593 65.125 60.5468 65.0625 60.5468C64.8984 60.5468 63.5469 59.6484 62.8906 59.1015C61.2656 57.7421 60.0234 56.1405 59.0156 54.1015C58.7422 53.539 58.4531 53.039 58.3828 52.9843C58.0391 52.7265 57.5 53.0312 57.5 53.4843C57.5 53.7655 58.3359 55.4452 58.9375 56.3749C60.2891 58.4452 62.0703 60.1718 64.1172 61.3905C65.0156 61.9296 65.1562 61.9296 66.0625 61.3593C67.1172 60.703 67.8438 60.1249 68.7344 59.2655C69.6875 58.3437 70.1875 57.7421 70.8984 56.6796C71.4922 55.789 72.5781 53.664 72.5781 53.3827C72.5781 53.2812 72.4922 53.1093 72.3828 53.0077C72.1797 52.8046 71.9297 52.7655 71.6953 52.8984Z" fill="#065393"/>
<path d="M46.0156 59.8517C45.6094 59.9767 45.3438 60.1954 45.1641 60.5704C45 60.9064 45 60.9611 45 68.7345C45 74.0704 45.0234 76.6251 45.0859 76.7736C45.1875 77.0392 45.5156 77.3986 45.7969 77.547C46.1094 77.7111 51.625 77.7111 51.9453 77.547C52.4453 77.2814 52.6953 76.8517 52.75 76.1251L52.7734 75.8829L56.1328 77.1642C57.9844 77.8595 59.7188 78.5079 59.9922 78.5939C60.8438 78.8595 60.2734 78.9298 71.7578 77.2658C72.9609 77.0939 74.1328 76.8986 74.3672 76.8283C74.875 76.6798 75.6953 76.2736 76.1328 75.9611C76.4688 75.7111 84.2422 68.7267 84.4688 68.4689C84.9922 67.8673 85.1328 66.6251 84.75 65.8986C84.4922 65.4064 84.0625 64.9767 83.6016 64.7501C83.1641 64.5392 82.3984 64.4767 81.8906 64.6173C81.6328 64.6798 80.3047 65.5314 77.5391 67.3829L73.5547 70.047L72.7344 70.0001L71.9141 69.9611L71.8594 69.4923C71.6641 67.9298 70.5156 66.6954 68.9844 66.4064C68.75 66.3595 66.7109 66.1642 64.4531 65.9689L60.3516 65.6173L59.7031 65.3517C59.3438 65.2111 58.3906 64.7345 57.5703 64.297C55.5625 63.2189 54.9141 62.9767 53.4609 62.797L52.75 62.7033L52.7188 61.7189C52.6953 60.8048 52.6797 60.7111 52.4844 60.4142C52.0938 59.8126 52.0391 59.8048 48.9844 59.7892C47.3438 59.7814 46.1797 59.8048 46.0156 59.8517ZM51.4688 61.0314C51.5391 61.1017 51.5625 61.7111 51.5625 63.297V65.4767L51.7578 65.6642C51.8594 65.7736 52.0391 65.8595 52.1484 65.8595C52.2578 65.8595 52.4375 65.7736 52.5391 65.6642C52.7188 65.4923 52.7344 65.422 52.7344 64.6876C52.7344 63.7736 52.6562 63.8283 53.7734 64.0236C54.6719 64.1798 55.5391 64.5079 56.5469 65.0626C57.7734 65.7501 59.0312 66.3595 59.6484 66.5861C60.1328 66.7579 60.6484 66.8204 64.4141 67.1486C66.7344 67.3439 68.8125 67.5626 69.0391 67.6251C69.8828 67.8595 70.6016 68.7111 70.6875 69.6017L70.7188 69.9689L65.2109 70.3048C62.1875 70.4923 59.5859 70.6251 59.4375 70.5939C59.2891 70.5704 59.0234 70.422 58.8516 70.2736C58.3203 69.8204 57.7344 69.9767 57.7344 70.5626C57.7344 70.8986 58.2734 71.4142 58.8828 71.6408C59.3047 71.8048 59.4219 71.8126 60.5078 71.7658C61.6953 71.7189 64.7422 71.5314 69.0625 71.2501C70.9922 71.1251 71.6641 71.1095 72.6016 71.1642C73.2422 71.2111 73.8203 71.2189 73.8906 71.1954C73.9609 71.1642 75.8359 69.9298 78.0469 68.4454C81.9609 65.8204 82.0781 65.7501 82.5 65.7189C82.8516 65.6954 82.9766 65.7189 83.1953 65.8751C83.7734 66.2658 83.9766 66.8908 83.7109 67.4533C83.6172 67.6486 82.3984 68.7892 79.7812 71.1564C77.6953 73.0314 75.8203 74.7033 75.625 74.8673C75.1797 75.2423 74.4766 75.5861 73.8672 75.7345C73.6094 75.797 70.6719 76.2423 67.3438 76.7267C62.8359 77.3751 61.1719 77.5861 60.8203 77.5548C60.375 77.5158 59.4531 77.1798 53.5547 74.9298L52.7734 74.6251L52.7344 71.1329L52.6953 67.6408L52.5078 67.4923C52.2734 67.3048 52.0234 67.3048 51.7891 67.4923L51.6016 67.6408L51.5625 72.047L51.5234 76.4454H48.8672H46.2109L46.1875 68.797C46.1797 63.2111 46.1953 61.1251 46.2578 61.047C46.3828 60.8986 51.3203 60.8829 51.4688 61.0314Z" fill="#065393"/>
<path d="M48.0835 71.4219C47.8101 71.5156 47.3648 71.8281 47.1617 72.0625C46.4663 72.8594 46.5913 74.2344 47.4273 74.9453C47.7632 75.2344 48.3492 75.4688 48.7476 75.4688C49.4742 75.4688 50.2945 74.9297 50.6304 74.2344C51.1382 73.1953 50.5601 71.8203 49.4585 71.4453C49.0601 71.3125 48.4351 71.2969 48.0835 71.4219ZM49.2007 72.6094C49.7867 72.9062 49.7788 73.7812 49.2007 74.1406C48.896 74.3281 48.6617 74.3359 48.357 74.1797C48.0288 74.0156 47.8882 73.7656 47.8882 73.375C47.8882 73.0859 47.9351 72.9844 48.1538 72.7656C48.4507 72.4688 48.8179 72.4141 49.2007 72.6094Z" fill="#065393"/>
</g>
<defs>
<filter id="filter0_d_1426_20720" x="0" y="0" width="131" height="130" filterUnits="userSpaceOnUse" color-interpolation-filters="sRGB">
<feFlood flood-opacity="0" result="BackgroundImageFix"/>
<feColorMatrix in="SourceAlpha" type="matrix" values="0 0 0 0 0 0 0 0 0 0 0 0 0 0 0 0 0 0 127 0" result="hardAlpha"/>
<feOffset dy="5"/>
<feGaussianBlur stdDeviation="5"/>
<feComposite in2="hardAlpha" operator="out"/>
<feColorMatrix type="matrix" values="0 0 0 0 0 0 0 0 0 0 0 0 0 0 0 0 0 0 0.04 0"/>
<feBlend mode="normal" in2="BackgroundImageFix" result="effect1_dropShadow_1426_20720"/>
<feBlend mode="normal" in="SourceGraphic" in2="effect1_dropShadow_1426_20720" result="shape"/>
</filter>
<clipPath id="clip0_1426_20720">
<rect width="40" height="40" fill="white" transform="translate(45 40)"/>
</clipPath>
</defs>
</svg>
